<svg width="21" height="20" viewBox="0 0 21 20" fill="none" xmlns="http://www.w3.org/2000/svg">
<path d="M17.2239 6.27566C17.0935 6.24959 16.9958 6.23656 16.9306 6.23656C16.4484 6.23656 16.0313 6.39948 15.6794 6.72532C14.8843 6.37341 14.1414 6.08667 13.4506 5.8651C12.3167 5.50016 11.1307 5.20039 9.89247 4.96579C9.77517 4.65298 9.59922 4.39231 9.36461 4.18377C9.69045 2.64581 10.1271 1.25122 10.6745 0C12.3167 0.117302 13.8253 0.593027 15.2004 1.42717C16.5754 2.26132 17.6865 3.35614 18.5337 4.71163C18.0515 5.23298 17.6149 5.75432 17.2239 6.27566ZM8.15249 3.73412C7.81362 3.73412 7.4943 3.82535 7.19453 4.00782C6.13881 3.22581 5.07657 2.56109 4.00782 2.01369C5.62398 0.78853 7.43565 0.117302 9.44281 0C8.93451 1.13392 8.52395 2.37862 8.21114 3.73412H8.15249ZM1.36852 4.94624C1.81167 4.20332 2.37211 3.49951 3.04985 2.8348C3.93614 3.29097 4.855 3.85142 5.80645 4.51613C4.12512 4.47703 2.64581 4.6204 1.36852 4.94624ZM6.27566 5.72825C6.30173 6.13229 6.44184 6.48746 6.69599 6.79374C6.95015 7.10003 7.26621 7.30531 7.64418 7.40958C7.56598 8.32193 7.52688 9.18866 7.52688 10.0098C7.52688 10.5833 7.54643 11.2414 7.58553 11.9844C7.29879 12.0756 7.04464 12.232 6.82307 12.4536C6.11926 12.1799 5.44151 11.8671 4.78983 11.5152C4.9332 11.2284 5.00489 10.9352 5.00489 10.6354C5.00489 10.114 4.82242 9.6709 4.45748 9.30596C4.09254 8.94102 3.6494 8.75855 3.12805 8.75855C2.55458 8.75855 2.07885 8.98012 1.70088 9.42326C1.15347 8.92799 0.664712 8.41316 0.234604 7.87879C0.351906 7.31834 0.527859 6.76442 0.762463 6.21701C2.35256 5.77387 4.19029 5.61095 6.27566 5.72825ZM1.27077 10.7918C1.30987 11.274 1.50863 11.6813 1.86706 12.0137C2.22548 12.346 2.64581 12.5122 3.12805 12.5122C3.27142 12.5122 3.42783 12.4862 3.59726 12.434C4.43141 12.9163 5.32421 13.3333 6.27566 13.6852V13.7634C6.27566 14.2717 6.44835 14.7051 6.79374 15.0635C7.13913 15.422 7.56598 15.6142 8.07429 15.6403C8.40013 17.2304 8.85631 18.6836 9.44281 20C8.13946 19.9218 6.90779 19.6057 5.7478 19.0518C4.58781 18.4979 3.58749 17.7778 2.74682 16.8915C1.90616 16.0052 1.23819 14.9625 0.742913 13.7634C0.247638 12.5644 0 11.3131 0 10.0098C0 9.99674 0.00651678 9.82079 0.0195503 9.48192C0.38449 9.93809 0.801564 10.3747 1.27077 10.7918ZM9.79472 14.6432C10.7331 14.8126 11.6781 14.9234 12.6295 14.9756C12.7208 15.2362 12.8641 15.4774 13.0596 15.6989C12.7599 17.0674 12.5774 18.3969 12.5122 19.6872C11.8475 19.8566 11.2349 19.9609 10.6745 20C10.0619 18.6054 9.58618 17.0283 9.24731 15.2688C9.48192 15.1124 9.66439 14.9039 9.79472 14.6432ZM15.8553 15.5816C16.0248 15.3731 16.1421 15.1515 16.2072 14.9169C17.1587 14.8387 18.0775 14.7149 18.9638 14.5455C18.3382 15.7706 17.478 16.8328 16.3832 17.7322C16.2659 17.0544 16.0899 16.3376 15.8553 15.5816ZM12.6686 13.7243C11.7563 13.6722 10.857 13.5549 9.97067 13.3724C9.8273 12.7208 9.45585 12.2711 8.85631 12.0235C8.80417 11.2545 8.7781 10.5833 8.7781 10.0098C8.7781 9.14956 8.8172 8.25676 8.89541 7.33138C8.92147 7.33138 8.95406 7.31834 8.99316 7.29228C9.03226 7.26621 9.05832 7.25318 9.07136 7.25318C9.57967 7.74845 10.0228 8.20463 10.4008 8.6217C11.5347 9.87292 12.4992 11.2936 13.2942 12.8837C13.0075 13.1052 12.799 13.3855 12.6686 13.7243ZM14.4086 16.2659C14.4347 16.2659 14.5064 16.2594 14.6237 16.2463C14.8452 17.0414 15.0081 17.8299 15.1124 18.6119C14.7344 18.8335 14.2783 19.0551 13.7439 19.2766C13.8351 18.26 13.9915 17.2499 14.2131 16.2463C14.3174 16.2594 14.3825 16.2659 14.4086 16.2659ZM14.3109 11.5934C14.2978 11.6194 14.2815 11.6585 14.262 11.7107C14.2424 11.7628 14.2261 11.8019 14.2131 11.828C13.392 10.3421 12.4275 8.99316 11.3196 7.78104C10.9156 7.32486 10.4334 6.82959 9.87292 6.29521C9.88596 6.29521 9.89573 6.28544 9.90225 6.26588L9.91202 6.23656C11.0068 6.45813 12.056 6.73183 13.0596 7.05767C13.6722 7.25318 14.3434 7.51385 15.0733 7.83969C15.0472 7.97002 15.0342 8.06777 15.0342 8.13294C15.0342 8.52395 15.1515 8.88237 15.3861 9.20821C14.956 10.0293 14.5976 10.8244 14.3109 11.5934ZM15.2297 12.7273C15.3861 12.2711 15.4643 12.0365 15.4643 12.0235C15.725 11.3718 16.0508 10.6745 16.4418 9.93157C16.6113 9.98371 16.7742 10.0098 16.9306 10.0098C17.3737 10.0098 17.7713 9.85989 18.1232 9.56012C18.7618 10.0033 19.3874 10.4985 20 11.0459C19.9218 11.7889 19.7654 12.5057 19.5308 13.1965C18.462 13.4181 17.3346 13.5745 16.1486 13.6657C15.9791 13.2486 15.6729 12.9358 15.2297 12.7273ZM18.8074 8.11339C18.8074 7.68328 18.6641 7.29228 18.3773 6.94037C18.651 6.58847 18.9247 6.26914 19.1984 5.9824C19.6676 7.05116 19.9413 8.15249 20.0196 9.28641C19.5894 8.96057 19.1724 8.66732 18.7683 8.40665C18.7944 8.28934 18.8074 8.19159 18.8074 8.11339Z" fill="white"/>
</svg>
