<svg width="24" height="17" viewBox="0 0 24 17" fill="none" xmlns="http://www.w3.org/2000/svg">
<path d="M12.0773 0H12.2108C13.4438 0.00450028 19.6917 0.0495034 21.3763 0.502532C21.8856 0.640793 22.3497 0.910291 22.7222 1.28409C23.0946 1.65789 23.3625 2.12291 23.499 2.63266C23.6505 3.2027 23.757 3.95725 23.829 4.7358L23.844 4.89181L23.877 5.28183L23.889 5.43784C23.9865 6.80893 23.9985 8.09301 24 8.37352V8.48603C23.9985 8.77705 23.985 10.1481 23.877 11.5762L23.865 11.7337L23.8515 11.8897C23.7765 12.7478 23.6655 13.5999 23.499 14.2269C23.3629 14.7369 23.0952 15.2021 22.7227 15.576C22.3501 15.9498 21.8858 16.2192 21.3763 16.357C19.6362 16.8251 13.0223 16.8581 12.1058 16.8596H11.8927C11.4292 16.8596 9.51209 16.8506 7.50197 16.7815L7.24695 16.7726L7.11645 16.7665L6.85993 16.756L6.60341 16.7455C4.93831 16.672 3.35271 16.5535 2.62216 16.3555C2.11287 16.2178 1.6487 15.9487 1.27617 15.5751C0.903632 15.2015 0.63581 14.7366 0.499531 14.2269C0.333021 13.6014 0.222014 12.7478 0.147009 11.8897L0.135008 11.7322L0.123008 11.5762C0.0489745 10.5598 0.0079503 9.54116 0 8.52203L0 8.33752C0.00300019 8.015 0.0150009 6.90043 0.096006 5.67035L0.106507 5.51584L0.111007 5.43784L0.123008 5.28183L0.15601 4.89181L0.171011 4.7358C0.243015 3.95725 0.349522 3.2012 0.501031 2.63266C0.63708 2.1227 0.9048 1.65747 1.27735 1.2836C1.6499 0.909738 2.11419 0.640379 2.62366 0.502532C3.35421 0.307519 4.93981 0.187512 6.60491 0.112507L6.85993 0.102006L7.11795 0.0930061L7.24695 0.0885057L7.50347 0.0780051C8.93112 0.0320641 10.3594 0.00655971 11.7877 0.00150016H12.0773V0ZM9.6006 4.8153V12.0428L15.8365 8.43053L9.6006 4.8153Z" fill="white"/>
</svg>
