<svg width="11" height="14" viewBox="0 0 11 14" fill="none" xmlns="http://www.w3.org/2000/svg">
<path d="M5.44332 14C4.46111 13.1622 3.55075 12.2438 2.72166 11.2542C1.47747 9.76821 6.8893e-07 7.55511 6.8893e-07 5.44621C-0.00110353 3.24365 1.32525 1.25749 3.36014 0.414558C5.39503 -0.428378 7.73737 0.0380669 9.29408 1.59622C10.3178 2.61538 10.8912 4.0017 10.8866 5.44621C10.8866 7.55511 9.40916 9.76821 8.16498 11.2542C7.33588 12.2438 6.42553 13.1622 5.44332 14ZM5.44332 1.55812C3.29706 1.5607 1.55781 3.29994 1.55523 5.44621C1.55523 6.35292 1.96504 7.92292 3.9153 10.2566C4.39595 10.8304 4.90599 11.3792 5.44332 11.9004C5.98065 11.3797 6.49092 10.8319 6.97211 10.2589C8.9216 7.92215 9.3314 6.35214 9.3314 5.44621C9.32884 3.29994 7.58962 1.5607 5.44332 1.55812ZM5.44332 7.77907C4.15489 7.77907 3.11047 6.73457 3.11047 5.44621C3.11047 4.1578 4.15489 3.11336 5.44332 3.11336C6.73175 3.11336 7.77617 4.1578 7.77617 5.44621C7.77617 6.06489 7.53036 6.65829 7.09288 7.09577C6.65539 7.53326 6.06207 7.77907 5.44332 7.77907Z" fill="#81D8D0"/>
</svg>
